<svg xmlns="http://www.w3.org/2000/svg" xmlns:xlink="http://www.w3.org/1999/xlink" width="80" height="80" viewBox="0 0 80 80"><defs><style>.a{fill:#fff;}.b{opacity:0.05;clip-path:url(#a);}</style><clipPath id="a"><rect class="a" width="80" height="80" transform="translate(539 958)"/></clipPath></defs><g class="b" transform="translate(-539 -958)"><g transform="translate(548.541 958.017)"><path class="a" d="M56.15,14.06A30.47,30.47,0,1,0,14.06,56.13V77.66A2.35,2.35,0,0,0,16.41,80a2.41,2.41,0,0,0,1.3-.39L30.47,71.1l12.76,8.51a2.34,2.34,0,0,0,3.64-2V56.13a30.47,30.47,0,0,0,9.28-42.07Zm-14,59.22-10.42-7a2.36,2.36,0,0,0-2.6,0l-10.42,7V58.59a30.43,30.43,0,0,0,23.44,0Zm-11.72-17a128.917,128.917,0,1,1,.04-.03Z"/><path class="a" d="M40,20.68l-13,13-6-6.13a3,3,0,0,0-4.26,4.2l8.17,8.28a3,3,0,0,0,2.12.88h0a3,3,0,0,0,2.11-.87l15.1-15.13A3,3,0,0,0,40,20.68Z"/></g></g></svg>